<svg xmlns="http://www.w3.org/2000/svg" viewBox="0 0 38 57"><path d="M19 28.5c0-5.247 4.253-9.5 9.5-9.5S38 23.253 38 28.5s-4.253 9.5-9.5 9.5-9.5-4.253-9.5-9.5z" fill="#1ABCFE"/><path d="M0 47.5C0 42.253 4.253 38 9.5 38H19v9.5c0 5.247-4.253 9.5-9.5 9.5S0 52.747 0 47.5z" fill="#0ACF83"/><path d="M19 0v19h9.5c5.247 0 9.5-4.253 9.5-9.5S33.747 0 28.5 0H19z" fill="#FF7262"/><path d="M0 9.5C0 14.747 4.253 19 9.5 19H19V0H9.5C4.253 0 0 4.253 0 9.5z" fill="#F24E1E"/><path d="M0 28.5C0 33.747 4.253 38 9.5 38H19V19H9.5C4.253 19 0 23.253 0 28.5z" fill="#A259FF"/></svg>